<?xml version="1.0" encoding="UTF-8" standalone="no"?><!DOCTYPE svg PUBLIC "-//W3C//DTD SVG 1.1//EN" "http://www.w3.org/Graphics/SVG/1.1/DTD/svg11.dtd"><svg width="100%" height="100%" viewBox="0 0 800 800" version="1.1" xmlns="http://www.w3.org/2000/svg" xmlns:xlink="http://www.w3.org/1999/xlink" xml:space="preserve" xmlns:serif="http://www.serif.com/" style="fill-rule:evenodd;clip-rule:evenodd;stroke-linejoin:round;stroke-miterlimit:2;"><path d="M490.127,-0l22.278,12.152c0,-0 -45.16,24.598 -75.54,47.889c-19.096,14.64 -45.979,45.275 -45.979,45.275c0,0 10.207,11.028 27.129,21.234c14.684,8.857 36.669,17.247 36.669,17.247c-0,0 25.518,-38.223 46.335,-62.865c24.055,-28.473 52.905,-54.603 52.905,-54.603l27.342,4.051c-0,-0 -28.509,26.853 -57.288,68.203c-19.098,27.439 -32.839,58.379 -32.839,58.379c0,0 24.428,7.153 64.28,13.352c44.051,6.852 72.429,7.914 72.429,7.914l0,22.313c0,0 -41.255,0.922 -76.192,-2.643c-46.053,-4.699 -73.681,-12.582 -73.681,-12.582c-0,0 -20.422,45.817 -27.267,69.859c-6.92,24.303 -14.252,75.964 -14.252,75.964c-0,0 50.773,15.166 87.429,21.601c64.135,11.257 103.963,11.817 103.963,11.817l0,23.354c0,-0 -50.205,0.719 -105.733,-6.549c-18.83,-2.464 -88.697,-18.83 -88.697,-18.83c-0,-0 -3.356,30.012 -1.725,58.655c1.988,34.937 8.813,65.902 8.813,65.902l-25.316,-8.102c-0,0 -12.84,-30.432 -19.187,-64.018c-4.584,-24.26 -5.117,-64.589 -5.117,-64.589c0,-0 -25.811,-7.231 -48.655,-19.038c-22.844,-11.807 -41.472,-27.545 -41.472,-27.545c0,0 -3.156,36.943 -2.808,49.375c0.904,32.236 5.846,58.98 5.846,58.98l-30.379,-32.405c-0,-0 -6.68,-29.913 -8.35,-60.799c-1.258,-23.27 1.261,-50.594 1.261,-50.594c0,0 -9.61,-12.385 -17.871,-28.081c-6.129,-11.646 -11.496,-30.653 -11.496,-30.653c0,0 2.618,-20.004 5.788,-29.516c7.933,-23.797 15.478,-34.281 15.478,-34.281c-0,-0 -2.235,17.891 3.148,38.859c5.384,20.967 16.092,36.077 16.092,36.077c0,0 9.21,-32.115 26.123,-63.17c14.787,-27.148 35.65,-50.247 35.65,-50.247c-0,-0 -7.038,-9.219 -12.022,-35.042c-0.847,-4.391 0.882,-22.68 0.882,-22.68c0,0 10.052,-10.253 17.647,-15.9c7.595,-5.648 21.847,-13.467 21.847,-13.467c-0,0 -6.67,10.175 -6.594,29.753c0.081,20.475 7.607,26.956 7.607,26.956c-0,0 27.803,-25.672 55.379,-43.783c26.068,-17.12 66.14,-33.179 66.14,-33.179Zm-124.557,136.709c-0,-0 -16.319,20.671 -29.986,50.69c-20.978,46.076 -26.723,73.867 -26.723,73.867c-0,-0 17.704,17.015 36.471,28.999c32.237,20.584 47.579,24.672 47.579,24.672c0,-0 -0.048,-27.231 14.985,-76.176c7.257,-23.628 29.572,-65.596 29.572,-65.596c0,-0 -22.821,-6.616 -40.711,-15.817c-16.15,-8.305 -31.187,-20.639 -31.187,-20.639Z" style="fill:#e36127;"/><path d="M602.025,435.443c14.252,0 25.823,11.571 25.823,25.823c0,14.252 -11.571,25.823 -25.823,25.823c-14.252,-0 -25.822,-11.571 -25.822,-25.823c-0,-14.252 11.57,-25.823 25.822,-25.823Zm0,3.038c-12.575,0 -22.784,10.21 -22.784,22.785c-0,12.575 10.209,22.785 22.784,22.785c12.576,-0 22.785,-10.21 22.785,-22.785c0,-12.575 -10.209,-22.785 -22.785,-22.785Z" style="fill:#e36127;"/><path d="M590.38,446.582l18.228,0c-0,0 6.076,1.857 6.076,10.127c-0,7.257 -6.076,10.126 -6.076,10.126l8.101,10.127l-9.114,0l-7.089,-10.127l-2.025,0l0,10.127l-8.101,0l-0,-30.38Zm8.101,14.177l7.089,0c-0,0 2.025,-0.675 2.025,-4.05c-0,-3.376 -2.025,-4.051 -2.025,-4.051l-7.089,0l0,8.101Z" style="fill:#e36127;"/><path d="M114.43,539.747l0,59.747l55.697,-0l-0,200.506l39.493,0c0,0 8.608,-0.506 15.19,-7.089c6.582,-6.582 6.076,-14.177 6.076,-14.177l0,-179.24l61.772,-0l0,-59.747l-178.228,-0Z" style="fill:#e36127;"/><path d="M292.658,539.747l0,260.253l59.747,-0l0,-99.241l75.949,0l0,99.241l59.747,-0l0,-260.253l-59.747,-0l0,102.278l-75.949,0l0,-102.278l-59.747,-0Z" style="fill:#e36127;"/><path d="M488.101,539.747l0,153.924l39.494,106.329l58.734,-0l38.481,-103.291l0,103.291l60.76,-0l-0,-260.253l-71.899,-0l-56.709,157.975l-56.709,-157.975l-12.152,-0Z" style="fill:#e36127;"/></svg>