<?xml version="1.0" encoding="UTF-8" standalone="no"?><!DOCTYPE svg PUBLIC "-//W3C//DTD SVG 1.1//EN" "http://www.w3.org/Graphics/SVG/1.1/DTD/svg11.dtd"><svg width="100%" height="100%" viewBox="0 0 800 800" version="1.1" xmlns="http://www.w3.org/2000/svg" xmlns:xlink="http://www.w3.org/1999/xlink" xml:space="preserve" xmlns:serif="http://www.serif.com/" style="fill-rule:evenodd;clip-rule:evenodd;stroke-linejoin:round;stroke-miterlimit:2;"><path d="M501.493,238.806l-291.344,322.388l-124.179,0l105.075,-117.015l-191.045,-205.373l128.955,-0l121.791,138.507l121.791,-138.507l128.956,-0Z" style="fill:#111;"/><g><path d="M534.925,238.806l265.075,-0l-64.478,85.97l-277.015,0l76.418,-85.97Z" style="fill:#26abe3;"/><path d="M437.015,348.657c-0,-0 -1.888,16.056 21.492,16.716c38.296,1.081 207.762,0 207.762,0c-0,0 69.186,0.796 69.253,90.746c0.079,104.857 -106.268,105.075 -106.268,105.075l-383.284,0l71.642,-81.194l296.119,0c0,0 23.881,0 23.881,-23.881c-0,-19.104 -23.881,-19.104 -23.881,-19.104c0,-0 -133.661,0.037 -174.328,-0c-54.578,-0.05 -69.254,-14.328 -69.254,-14.328l66.866,-74.03Z" style="fill:#26abe3;"/></g></svg>